<?xml version="1.0" encoding="UTF-8" standalone="no"?>
<svg
   xmlns:dc="http://purl.org/dc/elements/1.1/"
   xmlns:cc="http://creativecommons.org/ns#"
   xmlns:rdf="http://www.w3.org/1999/02/22-rdf-syntax-ns#"
   xmlns:svg="http://www.w3.org/2000/svg"
   xmlns="http://www.w3.org/2000/svg"
   viewBox="0 0 471.3125 500.36249"
   height="500.36249"
   width="471.3125"
   xml:space="preserve"
   version="1.1"
   id="svg2"><metadata
     id="metadata8"><rdf:RDF><cc:Work
         rdf:about=""><dc:format>image/svg+xml</dc:format><dc:type
           rdf:resource="http://purl.org/dc/dcmitype/StillImage" /></cc:Work></rdf:RDF></metadata><defs
     id="defs6" /><g
     transform="matrix(1.25,0,0,-1.25,0,500.3625)"
     id="g10"><g
       transform="scale(0.1,0.1)"
       id="g12"><path
         id="path14"
         style="fill:#ffffff;fill-opacity:1;fill-rule:nonzero;stroke:none"
         d="M 336.27,3661.02 C 182.613,3586.58 0,3421.93 0,3061.91 0,3006.3 4.33984,2946.78 13.1797,2884.51 L 16.793,2856.7 C 38.9531,2691.47 107.164,2187.65 359.727,1658.34 614.164,1126.43 849.934,787.41 1230.22,406.691 1233.26,403.789 1517.54,122.852 1658.3,52.0313 1758.66,1.91797 1859.31,-0.390625 1884.94,0.0390625 l -3.18,0 6.22,0 -2.9,0 C 1911,-0.390625 2011.36,1.78125 2112.01,52.0313 c 140.76,70.8207 425.33,351.7577 428.08,354.6597 380.58,380.719 616.35,719.739 870.64,1251.649 252.85,529.31 320.33,1033.13 343.08,1198.8 l 3.76,28.24 c 67.05,478.33 -138.73,685.85 -322.95,775.64 -465.58,226.93 -986.77,341.91 -1549.54,341.91 -562.47,0 -1083.662,-114.98 -1548.81,-341.91" /><path
         id="path16"
         style="fill:#000;fill-opacity:1;fill-rule:nonzero;stroke:none"
         d="m 2301.57,2989.82 86.3,0 0.45,192.46 -1.02,0 -85.73,-192.46 z m 930.3,-206.08 -201.87,0 108.32,509.9 201.88,0 -108.33,-509.9 z m -365.81,0 -202.01,0 79.49,372.91 -125.84,0 29.11,136.99 453.42,0 -29.4,-136.99 -125.41,0 -79.36,-372.91 z m -472.54,0 -2.31,81.97 -146.41,0 -37.66,-81.97 -193.61,0 271.38,509.9 262.27,0 55.6,-509.9 -209.26,0 z m -611.71,-13.61 c -178.7,0 -238.21,109.05 -204.04,270.81 28.96,158.86 146.41,266.32 318.89,266.32 128.6,0 226.2,-52.57 195.21,-202.31 l -185.22,0 c 9.56,57.93 -9.13,69.22 -34.03,69.22 -52.29,0 -68.36,-53.44 -86.17,-135.55 -16.07,-77.48 -24.62,-135.55 26.36,-135.55 26.35,0 47.06,15.35 61.55,68.94 l 189.27,0 c -29.84,-140.19 -155.38,-201.88 -281.82,-201.88 m -553.77,0 c -154.09,0 -229.106,61.69 -203.03,184.35 l 71.96,339.16 202.17,0 -70.38,-330.47 c -8.55,-40.26 7.24,-55.9 28.38,-55.9 21.15,0 43.6,15.64 52.14,55.9 l 70.24,330.47 202.01,0 -71.82,-339.16 c -26.22,-122.66 -127.59,-184.35 -281.67,-184.35 M 991.691,3033.12 C 958.68,2879.18 838.336,2783.74 681.348,2783.74 l -251.254,0 108.179,509.9 239.528,0 c 204.047,0 245.899,-109.19 213.89,-260.52 m 2385.289,509.9 c -491.66,239.67 -1013.43,328.73 -1491.91,328.73 -478.48,0 -999.957,-89.06 -1491.472,-328.73 -174.356,-85.01 -262.41,-246.63 -262.41,-481.08 0,-49.96 4.207,-102.97 12.019,-159.01 l 4.059,-28.39 c 15.496,-116.72 54.164,-405.63 167.703,-750.58 130.187,167.41 649.207,309.91 1570.101,358.42 868.33,45.76 1488.57,42.72 1678.14,40.4 34.32,159.74 51.12,284.57 60.25,351.76 l 3.91,28.39 c 45.18,321.78 -39.11,537.12 -250.39,640.09 m -2645.816,-365.08 -19.543,0 -59.379,-278.34 19.985,0 c 32.148,0 53.875,11.73 71.109,32.15 17.953,21.28 29.832,57.34 40.113,106.87 10.571,49.67 14.043,85.88 5.215,106.59 -8.551,20.56 -24.769,32.73 -57.5,32.73 M 2567.01,2265.59 C 1565.31,2109.04 1080.75,1844.17 844.559,1594.8 663.539,1403.49 726.684,1256.65 775.051,1172.07 930.148,929.359 1101.18,721.551 1323.33,499.691 c 70.96,-70.961 296.44,-281.382 393.76,-330.179 80.37,-40.121 164.37,-38.242 167.98,-38.242 4.06,0 87.9,-1.879 168.13,38.242 97.46,48.797 322.94,259.218 394.05,330.179 368.85,368.7 597.67,698.159 845.01,1215.299 108.47,227.66 181.89,450.67 231.56,641.98 l 0.72,3.04 c -218.81,-4.49 -531.47,-27.66 -957.53,-94.42" /></g></g></svg>